<svg width="799" height="248" viewBox="0 0 799 248" fill="none" xmlns="http://www.w3.org/2000/svg">
<g clip-path="url(#clip0_908_2)">
<path d="M235.913 248.221H158.184L151.288 207.242L150.892 206.096L113.371 205.325L81.9756 206.867L75.4548 248.221H0.413086L75.4548 0.450195H168.142L235.913 248.221ZM139.413 150.179L122.559 69.0127H117.976L96.5173 150.179L117.976 150.575L139.413 150.179Z" fill="#5E17EB"/>
<path d="M314.402 102.325L327.819 179.679H331.631L348.881 106.909L355.756 67.471H420.09L366.485 248.221H285.298L239.735 68.6169L309.423 65.9502L314.402 102.325Z" fill="#5E17EB"/>
<path d="M493.611 102.325L507.028 179.679H510.84L528.09 106.909L534.965 67.471H599.299L545.694 248.221H464.507L418.944 68.6169L488.632 65.9502L493.611 102.325Z" fill="#5E17EB"/>
<path d="M798.819 202.263L792.299 240.554C780.049 248.471 767.283 252.304 754.007 252.054C739.2 248.981 728.476 238.263 721.84 219.888H717.236C710.095 227.804 703.075 234.252 696.174 239.221C689.283 244.195 681.632 247.961 673.215 250.513C654.309 250.513 639.694 246.174 629.361 237.492C619.028 228.815 613.861 216.304 613.861 199.971L615.007 160.534L612.694 71.6794L683.549 66.7002V170.492C683.549 178.148 684.825 183.57 687.382 186.763C689.934 189.961 693.892 191.554 699.257 191.554C702.575 191.554 705.444 191.112 707.861 190.221C710.288 189.32 712.908 187.846 715.715 185.804V71.6794L786.549 66.7002L782.34 191.554C782.34 194.362 782.783 196.403 783.674 197.679C784.575 198.961 785.924 199.596 787.715 199.596C789.491 199.596 791.658 199.211 794.215 198.429L798.819 202.263Z" fill="#5E17EB"/>
</g>
<defs>
<clipPath id="clip0_908_2">
<rect width="799" height="248" fill="white"/>
</clipPath>
</defs>
</svg>
