<svg width="799" height="252" viewBox="0 0 799 252" fill="none" xmlns="http://www.w3.org/2000/svg">
<path d="M235.5 247.771H157.771L150.875 206.792L150.479 205.646L112.958 204.875L81.5625 206.417L75.0417 247.771H0L75.0417 0H167.729L235.5 247.771ZM139 149.729L122.146 68.5625H117.563L96.1042 149.729L117.563 150.125L139 149.729Z" fill="white"/>
<path d="M313.989 101.875L327.406 179.229H331.218L348.468 106.458L355.343 67.0208H419.676L366.072 247.771H284.885L239.322 68.1667L309.01 65.5L313.989 101.875Z" fill="white"/>
<path d="M493.198 101.875L506.615 179.229H510.427L527.677 106.458L534.552 67.0208H598.885L545.281 247.771H464.094L418.531 68.1667L488.219 65.5L493.198 101.875Z" fill="white"/>
<path d="M798.406 201.813L791.885 240.104C779.635 248.021 766.87 251.854 753.594 251.604C738.786 248.531 728.063 237.813 721.427 219.438H716.823C709.682 227.354 702.661 233.802 695.76 238.771C688.87 243.745 681.219 247.51 672.802 250.063C653.896 250.063 639.281 245.724 628.948 237.042C618.615 228.365 613.448 215.854 613.448 199.521L614.594 160.083L612.281 71.2292L683.135 66.25V170.042C683.135 177.698 684.411 183.12 686.969 186.313C689.521 189.51 693.479 191.104 698.844 191.104C702.161 191.104 705.031 190.661 707.448 189.771C709.875 188.87 712.495 187.396 715.302 185.354V71.2292L786.135 66.25L781.927 191.104C781.927 193.911 782.37 195.953 783.26 197.229C784.161 198.51 785.51 199.146 787.302 199.146C789.078 199.146 791.245 198.76 793.802 197.979L798.406 201.813Z" fill="white"/>
</svg>
